<?xml version="1.0" encoding="utf-8"?>
<!-- Generator: Adobe Illustrator 24.0.1, SVG Export Plug-In . SVG Version: 6.00 Build 0)  -->
<svg version="1.1" id="Layer_1" xmlns="http://www.w3.org/2000/svg" xmlns:xlink="http://www.w3.org/1999/xlink" x="0px" y="0px"
	 viewBox="0 0 200 128" style="enable-background:new 0 0 200 128;" xml:space="preserve">
<style type="text/css">
	.st0{fill:#FFFFFF;}
</style>
<g>
	<g>
		<g>
			<path class="st0" d="M82.4,42.2v43.6h-15V71.2h-13v14.6h-15V42.2h15v16h13v-16H82.4z"/>
		</g>
	</g>
	<g>
		<path class="st0" d="M139.1,11.9c-15.6,0-29.5,6.8-39.1,17.7c-9.5-10.8-23.5-17.7-39.1-17.7C32.2,11.9,8.9,35.2,8.9,64
			s23.3,52.1,52.1,52.1c15.6,0,29.5-6.8,39.1-17.7c9.5,10.8,23.5,17.7,39.1,17.7c28.8,0,52.1-23.3,52.1-52.1S167.8,11.9,139.1,11.9z
			 M60.9,105c-22.7,0-41-18.4-41-41s18.4-41,41-41C83.6,23,102,41.3,102,64S83.6,105,60.9,105z M148.1,85.8l-5.5-10.3h-1h-5.4v10.3
			h-15V42.2h20.4c12.8,0,20.1,5.8,20.1,16.3c0,4.9-1.9,9.2-5.4,12.3l8.5,15H148.1z"/>
		<path class="st0" d="M141.7,54.6h-5.4v7.8h5.4c2.9,0,4.8-1.7,4.8-4.1C146.5,56.1,144.6,54.6,141.7,54.6z"/>
	</g>
</g>
</svg>
